<svg xmlns="http://www.w3.org/2000/svg" xmlns:xlink="http://www.w3.org/1999/xlink" x="0px" y="0px" viewBox="0 0 3252.01 726.3" style="enable-background:new 0 0 3252.01 726.3;" xml:space="preserve"><style type="text/css">	.st0{fill:#FFFFFF;}</style><g id="Background"></g><g id="Artwork">	<g>		<path class="st0" d="M720,720h160V240H720V720z M960,160h400V0H960V160z M720,0h160v160H720V0z M480,720h160V0H480V720z M240,560   h160V0H240V560z M0,720h160V0H0V720z M960,720h160V240H960V720z"></path>		<g>			<path class="st0" d="M1504.89,420h241.26v51.19h-90.21V720h-60.84V471.19h-90.21V420z"></path>			<path class="st0" d="M1852.72,696.09h-0.84c-10.91,16.36-26.43,28.95-63.36,28.95c-44.06,0-75.11-23.08-75.11-65.88    c0-47.41,38.6-62.52,86.43-69.23c35.67-5.04,52.03-7.97,52.03-24.34c0-15.52-12.17-25.59-36.08-25.59    c-26.85,0-39.86,9.65-41.54,30.21h-50.77c1.68-37.76,29.79-70.91,92.73-70.91c64.62,0,90.63,28.95,90.63,79.3v109.51    c0,16.36,2.52,26.01,7.55,29.79v2.1h-54.97C1856.08,715.81,1853.98,705.74,1852.72,696.09z M1853.14,644.06v-32.31    c-10.07,5.88-25.59,9.23-39.86,12.59c-29.79,6.71-44.48,13.43-44.48,33.57c0,20.14,13.43,27.27,33.57,27.27    C1835.1,685.18,1853.14,665.04,1853.14,644.06z"></path>			<path class="st0" d="M1943.76,420h57.06v300h-57.06V420z"></path>			<path class="st0" d="M2028.1,612.17c0-63.78,43.22-113.29,106.16-113.29c69.23,0,106.16,52.87,106.16,129.65h-156.09    c4.2,33.15,22.66,53.71,54.97,53.71c22.24,0,35.25-10.07,41.54-26.43h56.22c-7.97,38.18-41.96,70.49-97.34,70.49    C2068.38,726.3,2028.1,676.37,2028.1,612.17z M2085.16,589.09h95.67c-1.68-27.27-19.72-46.15-45.73-46.15    C2104.88,542.94,2090.2,560.98,2085.16,589.09z"></path>			<path class="st0" d="M2322.64,534.13h1.26c14.69-23.08,34.41-35.25,63.78-35.25c44.48,0,74.27,33.57,74.27,80.56V720h-57.06    V587.83c0-23.08-13.43-39.44-37.34-39.44c-25.17,0-43.64,20.14-43.64,49.51V720h-57.06V504.76h55.8V534.13z"></path>			<path class="st0" d="M2480.4,504.76h29.79v-67.13h55.8v67.13h36.92v37.76H2566v114.13c0,15.94,8.81,21.4,21.4,21.4    c7.13,0,16.78-0.42,16.78-0.42v41.96c0,0-13.01,0.84-35.67,0.84c-27.69,0-58.32-10.91-58.32-51.61v-126.3h-29.79V504.76z"></path>		</g>		<g>			<path class="st0" d="M1520.41,0h220.7v51.19h-159.86v67.13h140.14v49.93h-140.14v80.98h161.12V300h-221.96V0z"></path>			<path class="st0" d="M1775.51,84.76h54.96v28.95h1.26c11.75-19.72,32.73-34.83,62.52-34.83c27.27,0,49.09,15.11,59.58,37.76h0.84    c14.69-23.5,37.34-37.76,64.62-37.76c45.32,0,70.91,29.37,70.91,76.36V300h-57.06V164.9c0-24.34-12.17-36.92-33.15-36.92    c-23.92,0-38.6,18.46-38.6,46.99V300h-57.06V164.9c0-24.34-12.17-36.92-33.15-36.92c-23.08,0-38.6,18.46-38.6,46.99V300h-57.06    V84.76z"></path>			<path class="st0" d="M2114.95,192.17c0-63.78,43.22-113.29,106.16-113.29c69.23,0,106.16,52.87,106.16,129.65h-156.09    c4.2,33.15,22.66,53.71,54.97,53.71c22.24,0,35.25-10.07,41.54-26.43h56.22c-7.97,38.18-41.96,70.49-97.34,70.49    C2155.23,306.3,2114.95,256.37,2114.95,192.17z M2172.01,169.09h95.67c-1.68-27.27-19.72-46.15-45.73-46.15    C2191.74,122.94,2177.05,140.98,2172.01,169.09z"></path>			<path class="st0" d="M2408.65,119.16h1.26c13.01-24.34,27.69-36.92,52.87-36.92c6.29,0,10.07,0.42,13.43,1.68v49.93h-1.26    c-37.34-3.78-64.2,15.94-64.2,61.26V300h-57.06V84.76h54.97V119.16z"></path>			<path class="st0" d="M2488.79,306.3h56.64c4.62,13.43,16.78,23.92,43.22,23.92c32.31,0,47.83-15.52,47.83-44.9v-23.5h-1.26    C2622.64,276.09,2606.28,287,2579,287c-47.83,0-94.83-37.76-94.83-102.8c0-64.2,38.6-105.32,93.15-105.32    c26.85,0,46.57,10.49,59.58,28.53h0.84V84.76h54.97v198.88c0,30.21-9.65,50.77-25.59,65.46c-18.04,16.78-45.74,24.34-77.62,24.34    C2530.75,373.43,2494.67,348.26,2488.79,306.3z M2639.42,182.94c0-31.47-16.78-58.32-51.19-58.32    c-28.95,0-48.25,22.66-48.25,58.74c0,36.5,19.3,57.9,48.67,57.9C2624.74,241.26,2639.42,214.83,2639.42,182.94z"></path>			<path class="st0" d="M2729.63,0h57.06v51.19h-57.06V0z M2729.63,84.76h57.06V300h-57.06V84.76z"></path>			<path class="st0" d="M2879.42,114.13h1.26c14.69-23.08,34.41-35.25,63.78-35.25c44.48,0,74.27,33.57,74.27,80.56V300h-57.06    V167.83c0-23.08-13.43-39.44-37.34-39.44c-25.17,0-43.64,20.14-43.64,49.51V300h-57.06V84.76h55.8V114.13z"></path>			<path class="st0" d="M3048.09,306.3h56.64c4.62,13.43,16.78,23.92,43.22,23.92c32.31,0,47.83-15.52,47.83-44.9v-23.5h-1.26    c-12.59,14.27-28.95,25.17-56.22,25.17c-47.83,0-94.83-37.76-94.83-102.8c0-64.2,38.6-105.32,93.15-105.32    c26.85,0,46.57,10.49,59.58,28.53h0.84V84.76h54.97v198.88c0,30.21-9.65,50.77-25.59,65.46c-18.04,16.78-45.74,24.34-77.62,24.34    C3090.05,373.43,3053.96,348.26,3048.09,306.3z M3198.72,182.94c0-31.47-16.78-58.32-51.19-58.32    c-28.95,0-48.25,22.66-48.25,58.74c0,36.5,19.3,57.9,48.67,57.9C3184.04,241.26,3198.72,214.83,3198.72,182.94z"></path>		</g>	</g></g><g id="Guides"></g></svg>